<svg width="22" height="22" viewBox="0 0 22 13" fill="none" xmlns="http://www.w3.org/2000/svg">
<path fill-rule="evenodd" clip-rule="evenodd" d="M6.01832 1.42687C8.40238 0.534429 10.368 0.677666 11.8794 1.44914C12.7178 1.87709 13.6209 2.50535 14.3907 3.04078C14.4237 3.06373 14.4564 3.08651 14.4889 3.1091C14.891 3.38863 15.251 3.6373 15.5567 3.82685C15.878 4.02614 16.081 4.12216 16.1838 4.14526C16.3684 4.1867 16.7692 4.2423 17.2609 4.31048C17.5206 4.34651 17.8057 4.38604 18.0976 4.42887C18.5066 4.48887 18.9197 4.55434 19.2643 4.62315C19.4363 4.65751 19.5973 4.69388 19.7353 4.73235C19.8637 4.76819 20.0064 4.81484 20.1216 4.87955C20.758 5.23689 21.2029 5.75362 21.4478 6.3552C21.7044 6.98537 21.7269 7.67346 21.5604 8.30211C21.3514 9.09066 20.845 9.78939 20.1216 10.1956C20.0498 10.2359 19.9705 10.2569 19.8902 10.2569H18.2147C17.929 10.2569 17.6973 9.99675 17.6973 9.67579C17.6973 9.35483 17.929 9.09463 18.2147 9.09463H19.7603C19.9231 8.98903 20.0648 8.86095 20.1839 8.71751H19.814C19.1497 8.71751 18.6112 8.11269 18.6112 7.3666C18.6112 6.62051 19.1497 6.01568 19.814 6.01568H19.8161C19.7664 5.98237 19.714 5.95015 19.6588 5.91916C19.6589 5.91921 19.659 5.91925 19.6588 5.91916C19.6571 5.91833 19.6435 5.9115 19.613 5.90032C19.581 5.88864 19.5389 5.87521 19.4858 5.8604C19.3793 5.83069 19.2434 5.79953 19.0831 5.76751C18.7628 5.70354 18.3689 5.64085 17.9635 5.58139C17.7134 5.54469 17.4545 5.50874 17.2072 5.4744C16.6789 5.40104 16.2038 5.33506 15.9809 5.285C15.7029 5.22256 15.3728 5.04061 15.0563 4.84432C14.7242 4.63829 14.3417 4.37379 13.9441 4.09737C13.9191 4.07994 13.8939 4.06246 13.8687 4.04493C13.0806 3.49685 12.2274 2.90355 11.4511 2.50728C10.2208 1.87928 8.53094 1.71148 6.34559 2.52954C5.55159 2.82677 5.01835 3.35737 4.60228 3.92852C4.39151 4.21784 4.2135 4.51367 4.0422 4.80228C4.0308 4.82147 4.01937 4.84076 4.00789 4.86012C3.85438 5.11911 3.69378 5.39005 3.52858 5.60651C3.43026 5.73532 3.28674 5.80945 3.13568 5.80945H3.04259C2.11799 5.80945 1.36845 6.65123 1.36845 7.68962C1.36845 8.1101 1.47738 8.42703 1.66488 8.60288C1.96753 8.8867 2.32696 9.09463 2.67874 9.09463C2.96453 9.09463 3.19621 9.35483 3.19621 9.67579C3.19621 9.99675 2.96453 10.2569 2.67874 10.2569C1.98182 10.2569 1.39233 9.86154 1.00152 9.49503C0.487792 9.01326 0.333496 8.29514 0.333496 7.68962C0.333496 6.07051 1.45966 4.74679 2.88029 4.65251C2.96383 4.52361 3.05483 4.37026 3.16288 4.18819C3.16888 4.17808 3.17493 4.16788 3.18104 4.15759C3.3524 3.86889 3.55512 3.5304 3.80125 3.19252C4.29899 2.50927 4.98426 1.81396 6.01832 1.42687ZM20.6046 7.17799H19.814C19.7213 7.17799 19.6461 7.26243 19.6461 7.3666C19.6461 7.47076 19.7213 7.5552 19.814 7.5552H20.6307C20.6353 7.42844 20.6267 7.302 20.6046 7.17799ZM6.74484 2.74857C6.84043 2.64948 6.96575 2.59445 7.09584 2.59445H11.2083C11.3258 2.59445 11.4398 2.63937 11.5316 2.7218L13.8163 4.77449C13.9879 4.92867 14.0541 5.18777 13.9813 5.42067C13.9086 5.65356 13.7128 5.80945 13.493 5.80945H5.11576C4.90269 5.80945 4.7114 5.66278 4.63381 5.43992C4.55622 5.21706 4.6082 4.96357 4.76476 4.80126L6.74484 2.74857ZM7.29816 3.75677L6.43928 4.64714H8.71076V3.75677H7.29816ZM9.74571 3.75677V4.64714H12.0178L11.0268 3.75677H9.74571ZM6.12142 9.67579C6.12142 9.35483 6.3531 9.09463 6.6389 9.09463H14.5592C14.845 9.09463 15.0767 9.35483 15.0767 9.67579C15.0767 9.99675 14.845 10.2569 14.5592 10.2569H6.6389C6.3531 10.2569 6.12142 9.99675 6.12142 9.67579Z" fill="#737ADE"/>
<path fill-rule="evenodd" clip-rule="evenodd" d="M4.8462 10.9981C5.42925 10.9981 5.9019 10.4541 5.9019 9.78299C5.9019 9.11188 5.42925 8.56783 4.8462 8.56783C4.26316 8.56783 3.79051 9.11188 3.79051 9.78299C3.79051 10.4541 4.26316 10.9981 4.8462 10.9981ZM4.8462 12.1441C5.9791 12.1441 6.89749 11.087 6.89749 9.78299C6.89749 8.47898 5.9791 7.42188 4.8462 7.42188C3.71331 7.42188 2.79492 8.47898 2.79492 9.78299C2.79492 11.087 3.71331 12.1441 4.8462 12.1441Z" fill="#737ADE"/>
<path fill-rule="evenodd" clip-rule="evenodd" d="M16.3335 10.9981C16.9166 10.9981 17.3892 10.4541 17.3892 9.78299C17.3892 9.11188 16.9166 8.56783 16.3335 8.56783C15.7505 8.56783 15.2778 9.11188 15.2778 9.78299C15.2778 10.4541 15.7505 10.9981 16.3335 10.9981ZM16.3335 12.1441C17.4664 12.1441 18.3848 11.087 18.3848 9.78299C18.3848 8.47898 17.4664 7.42188 16.3335 7.42188C15.2006 7.42188 14.2822 8.47898 14.2822 9.78299C14.2822 11.087 15.2006 12.1441 16.3335 12.1441Z" fill="#737ADE"/>
</svg>
