<svg width="16" height="17" viewBox="0 0 16 17" fill="none" xmlns="http://www.w3.org/2000/svg">
<g clip-path="url(#clip0_8233_258850)">
<path d="M11.5464 12.3514C11.6706 12.2021 11.6952 11.9701 11.6287 11.7464L11.2549 10.678C11.9421 10.1553 12.7535 9.48346 13.5397 8.53818C16.3454 5.06396 15.0904 0.905769 15.0323 0.773253C14.9658 0.549604 14.7171 0.342694 14.485 0.318051C14.3441 0.285038 11.8417 0.0553417 9.3904 1.38328L9.34902 1.43303C8.56229 1.87289 7.83369 2.44526 7.1302 3.29104C6.34394 4.23631 5.78133 5.1151 5.40099 5.97714L4.32366 5.75442C4.09164 5.72978 3.86799 5.79627 3.74385 5.94552L0.838271 8.83156C0.672742 9.03057 0.606717 9.31234 0.673207 9.53599C0.681577 9.62712 0.781078 9.70989 0.880581 9.79265C0.980084 9.87541 1.17072 9.94981 1.26185 9.94144L5.16431 9.90471C5.16431 9.90471 5.16431 9.90471 5.25545 9.89634C5.25545 9.89634 5.25545 9.89634 5.3052 9.93772C5.3052 9.93772 5.852 9.88751 6.49877 10.4255C7.19528 11.0048 7.23713 11.4605 7.23713 11.4605C7.2455 11.5516 7.25387 11.6428 7.31199 11.7753L8.01966 15.4783C8.0364 15.6605 8.1359 15.7433 8.23541 15.8261C8.33491 15.9088 8.38466 15.9502 8.52555 15.9832C8.80732 16.0492 9.07235 15.933 9.18812 15.6926L11.5464 12.3514ZM13.8648 1.56974C13.9647 2.15792 14.1149 3.2929 13.8262 4.652L10.8411 2.16908C12.1249 1.63762 13.2682 1.57857 13.8648 1.56974ZM4.44083 7.03029L4.90487 7.07958C4.73143 7.69287 4.64076 8.20665 4.58311 8.57956L2.83483 8.55631L4.44083 7.03029ZM5.88408 8.73579C5.99102 7.89885 6.38718 6.20823 8.12522 4.11868C8.58043 3.57141 9.09375 3.15666 9.65682 2.7833L13.5374 6.01109C13.3142 6.583 12.9999 7.16328 12.5033 7.7603C10.7653 9.84985 9.17511 10.5473 8.37165 10.8049C8.19729 10.4073 7.88204 9.97678 7.33477 9.52158C6.78751 9.06638 6.25698 8.79344 5.88408 8.73579ZM8.62133 12.0226C8.9775 11.898 9.46618 11.7153 10.0376 11.4331L10.2204 11.9217L8.92123 13.7872L8.62133 12.0226ZM2.21875 14.3568C1.92024 14.1085 1.88676 13.7439 2.13506 13.4454L4.28692 10.8584C4.53521 10.5598 4.89975 10.5264 5.19825 10.7747C5.49676 11.023 5.53024 11.3875 5.28195 11.686L3.13008 14.2731C2.92317 14.5218 2.4675 14.5637 2.21875 14.3568ZM4.53846 14.0978C4.23996 13.8495 4.20648 13.4849 4.45477 13.1864L5.5307 11.8929C5.779 11.5944 6.14353 11.5609 6.44204 11.8092C6.74055 12.0575 6.77402 12.422 6.52573 12.7205L5.4498 14.0141C5.24289 14.2628 4.83697 14.3461 4.53846 14.0978Z" fill="#737ADE"/>
</g>
<defs>
<clipPath id="clip0_8233_258850">
<rect width="16" height="16" fill="white" transform="translate(0 0.148438)"/>
</clipPath>
</defs>
</svg>
