<svg width="17" height="17" viewBox="0 0 17 17" fill="none" xmlns="http://www.w3.org/2000/svg">
<path fill-rule="evenodd" clip-rule="evenodd" d="M16.6154 0.562545C16.6442 0.63353 16.6636 0.707863 16.6663 0.784875C16.6669 0.788893 16.6649 0.793581 16.6649 0.797599C16.6663 0.85586 16.6623 0.913451 16.6475 0.971043L13.3142 14.3095C13.2633 14.5111 13.1227 14.6772 12.9326 14.7602C12.8476 14.797 12.7572 14.8151 12.6675 14.8151C12.555 14.8151 12.4439 14.787 12.3435 14.7307L9.28599 13.0318C9.26457 13.0927 9.24448 13.1543 9.20431 13.2086L7.24878 15.8759C7.12091 16.0507 6.9194 16.1484 6.71119 16.1484C6.6429 16.1484 6.57395 16.1384 6.507 16.1163C6.23385 16.0286 6.04707 15.7754 6.04439 15.4881L6.00021 10.8199C6.00021 10.8065 6.0069 10.7951 6.00757 10.7824C6.00824 10.763 6.01427 10.7442 6.01828 10.7248C6.02699 10.6605 6.04105 10.5989 6.06849 10.5386C6.0705 10.5346 6.0705 10.5299 6.07251 10.5252C6.07854 10.5138 6.07787 10.5011 6.08389 10.4897C6.09795 10.465 6.12004 10.4495 6.13678 10.4274C6.15285 10.4053 6.16021 10.3792 6.17963 10.3585L12.9862 3.06309L2.82355 8.14588L4.75498 9.11155C5.08504 9.27629 5.21826 9.67675 5.05357 10.0062C4.88888 10.3357 4.48853 10.4696 4.15915 10.3049L1.03471 8.74189C0.809102 8.62939 0.666504 8.39835 0.666504 8.14588C0.666504 7.89342 0.809102 7.66238 1.03471 7.54921L15.7022 0.212977C15.7076 0.210968 15.7136 0.210298 15.7183 0.20762C15.735 0.200253 15.7518 0.197575 15.7685 0.191547C15.8261 0.170118 15.8843 0.156055 15.9439 0.150698C15.9673 0.148689 15.9888 0.148019 16.0122 0.148689C16.0751 0.149358 16.1367 0.159403 16.197 0.178154C16.211 0.182172 16.2251 0.183511 16.2392 0.188869C16.3028 0.212977 16.363 0.245791 16.4179 0.289319C16.4259 0.296016 16.4306 0.304722 16.4387 0.311418C16.444 0.316106 16.4507 0.317445 16.4554 0.322133C16.4661 0.331508 16.4695 0.344902 16.4788 0.354947C16.5223 0.401154 16.5585 0.45071 16.5866 0.505623C16.5967 0.525043 16.6074 0.542454 16.6154 0.562545ZM12.2317 13.143L14.7281 3.15082L7.73616 10.6444L12.2317 13.143ZM7.35924 13.4704L8.12914 12.4197C8.13516 12.4117 8.14387 12.4083 8.14989 12.401L7.34451 11.953L7.35924 13.4704Z" fill="#737ADE"/>
</svg>
