<svg width="20" height="21" viewBox="0 0 20 21" fill="none" xmlns="http://www.w3.org/2000/svg">
<path fill-rule="evenodd" clip-rule="evenodd" d="M3.96484 17.4282C3.54178 17.8513 2.85585 17.8513 2.43278 17.4282C2.00971 17.0051 2.00971 16.3192 2.43278 15.8961L8.03908 10.2898L2.56738 4.81812C2.14431 4.39505 2.14431 3.70912 2.56738 3.28605C2.99045 2.86298 3.67638 2.86298 4.09945 3.28605L9.57115 8.75775L15.0428 3.28605C15.4659 2.86298 16.1518 2.86298 16.5749 3.28605C16.998 3.70912 16.998 4.39505 16.5749 4.81812L11.1032 10.2898L16.7095 15.8961C17.1326 16.3192 17.1326 17.0051 16.7095 17.4282C16.2865 17.8513 15.6005 17.8513 15.1775 17.4282L9.57115 11.8219L3.96484 17.4282Z" fill="#212529"/>
</svg>
