<svg width="12" height="12" viewBox="0 0 12 12" fill="none" xmlns="http://www.w3.org/2000/svg">
<path fill-rule="evenodd" clip-rule="evenodd" d="M9.8026 5.56626L5.59951 11.6524C5.52948 11.8558 5.33691 12 5.11036 12C5.08873 12 5.06711 11.999 5.04548 11.996C4.80245 11.9678 4.62842 11.7825 4.59958 11.5614C4.59649 11.5479 4.59804 11.5338 4.59598 11.5202C4.59495 11.4931 4.5862 11.468 4.5898 11.4404L4.59443 11.4007C4.59701 11.3821 4.59752 11.364 4.60164 11.3454L5.09594 7.5099L2.68417 7.5094C2.30418 7.5094 2.13684 7.31046 2.07093 7.1919C1.88505 6.85783 2.1147 6.53482 2.18987 6.42832L7.29557 0.192007C7.47424 -0.0255152 7.80377 -0.0636947 8.03084 0.105601C8.15854 0.200547 8.22033 0.340203 8.22547 0.482874C8.23371 0.542655 8.23371 0.604948 8.21724 0.66724L7.22967 4.51533H9.32375C9.70168 4.51533 9.86593 4.70672 9.93029 4.82076C10.1054 5.13323 9.90815 5.41455 9.8026 5.56626ZM7.00105 5.51301C6.76575 5.51301 6.54846 5.41455 6.38936 5.23471C6.20451 5.02623 6.11955 4.72682 6.16847 4.45404L6.6396 2.6159L3.44931 6.5112H5.33485C5.62886 6.5112 5.85644 6.59862 6.0104 6.77143C6.09226 6.86336 6.2215 7.0633 6.16898 7.37275L5.90948 9.38772L8.58539 5.51301H7.00105Z" fill="#495057"/>
</svg>
