<svg width="12" height="12" viewBox="0 0 12 12" fill="none" xmlns="http://www.w3.org/2000/svg">
<path fill-rule="evenodd" clip-rule="evenodd" d="M9.85349 5.85329C9.75576 5.95122 9.62781 5.99994 9.49985 5.99994C9.3719 5.99994 9.24394 5.95122 9.14672 5.85329C8.95126 5.65843 8.95126 5.34153 9.14672 5.14667L10.3124 3.98053H0.479073C0.203014 3.98053 0 3.77612 0 3.49991C0 3.22369 0.223668 2.9997 0.500231 2.9997H10.2928L9.14672 1.85364C8.95126 1.65828 8.95126 1.34138 9.14672 1.14652C9.34167 0.951159 9.65803 0.951159 9.85349 1.14652L11.8529 3.14584C11.8992 3.19205 11.936 3.24779 11.9612 3.30906C11.9869 3.37033 12 3.43512 12 3.50041C12 3.67719 11.927 3.81731 11.8066 3.90067L9.85349 5.85329ZM0.0387893 8.30862C0.0639772 8.24786 0.100248 8.19261 0.146593 8.14641L2.14651 6.14658C2.34197 5.95122 2.65833 5.95122 2.85328 6.14658C3.04874 6.34144 3.04874 6.65834 2.85328 6.8537L1.70723 8.00026H11.4998C11.7763 8.00026 12 8.22375 12 8.49997C12 8.77619 11.7763 8.99967 11.4998 8.99967H1.70723L2.85328 10.1462C3.04874 10.3416 3.04874 10.658 2.85328 10.8534C2.75606 10.9508 2.6281 11 2.50015 11C2.37219 11 2.24424 10.9508 2.14651 10.8534L0.146593 8.85353C0.100248 8.80732 0.0639772 8.75208 0.0387893 8.69131C-0.0120902 8.56877 -0.0120902 8.43117 0.0387893 8.30862Z" fill="#868E96"/>
</svg>
