<svg width="18" height="18" viewBox="0 0 18 18" fill="none" xmlns="http://www.w3.org/2000/svg">
<path fill-rule="evenodd" clip-rule="evenodd" d="M7.2 14.4C3.22366 14.4 0 11.1763 0 7.19957C0 3.22359 3.22381 0 7.2 0C11.1762 0 14.4 3.22359 14.4 7.19957C14.4 9.04259 13.7076 10.7239 12.5687 11.9975L17.7658 16.7486C18.0593 17.0169 18.0797 17.4723 17.8114 17.7658C17.5431 18.0593 17.0877 18.0797 16.7942 17.8114L11.5023 12.9736C10.302 13.8696 8.81292 14.4 7.2 14.4ZM11.1369 11.4044C11.0833 11.4381 11.0333 11.4795 10.9886 11.5285C10.9769 11.5412 10.9659 11.5542 10.9553 11.5675C9.94694 12.4354 8.63469 12.96 7.19997 12.96C4.01893 12.96 1.43997 10.381 1.43997 7.19957C1.43997 4.0189 4.01905 1.44 7.19997 1.44C10.3809 1.44 12.96 4.0189 12.96 7.19957C12.96 8.85833 12.2589 10.3533 11.1369 11.4044Z" fill="#868E96"/>
</svg>
