<svg width="16" height="16" viewBox="0 0 16 16" fill="none" xmlns="http://www.w3.org/2000/svg">
<path fill-rule="evenodd" clip-rule="evenodd" d="M9.45667 14.6667L0.666665 14.6667C0.298665 14.6667 -6.28045e-07 14.368 -6.11959e-07 14C-5.95874e-07 13.632 0.298665 13.3333 0.666665 13.3333L9.45667 13.3333C9.73267 12.5587 10.4653 12 11.3333 12C12.2013 12 12.934 12.5587 13.2107 13.3333L15.3333 13.3333C15.7013 13.3333 16 13.632 16 14C16 14.368 15.7013 14.6667 15.3333 14.6667L13.2107 14.6667C12.934 15.4407 12.2013 16 11.3333 16C10.4653 16 9.73267 15.4407 9.45667 14.6667ZM12 14C12 13.6327 11.7013 13.3333 11.3333 13.3333C10.966 13.3333 10.6667 13.6327 10.6667 14C10.6667 14.3673 10.966 14.6667 11.3333 14.6667C11.7013 14.6667 12 14.3673 12 14ZM2.78933 8.66667L0.666666 8.66667C0.298666 8.66667 -3.65777e-07 8.368 -3.49691e-07 8C-3.33605e-07 7.632 0.298666 7.33333 0.666666 7.33333L2.78933 7.33333C3.066 6.55933 3.79867 6 4.66667 6C5.53467 6 6.26733 6.55933 6.544 7.33333L15.3333 7.33333C15.7013 7.33333 16 7.632 16 8C16 8.368 15.7013 8.66667 15.3333 8.66667L6.544 8.66667C6.26733 9.44133 5.53467 10 4.66667 10C3.79867 10 3.066 9.44133 2.78933 8.66667ZM5.33333 8C5.33333 7.63267 5.03467 7.33333 4.66667 7.33333C4.29867 7.33333 4 7.63267 4 8C4 8.36733 4.29867 8.66667 4.66667 8.66667C5.03467 8.66667 5.33333 8.36733 5.33333 8ZM6.12267 2.66667L0.666665 2.66667C0.298665 2.66667 -2.01086e-06 2.368 -1.99477e-06 2C-1.97869e-06 1.632 0.298665 1.33333 0.666665 1.33333L6.12267 1.33333C6.39867 0.558666 7.132 -3.87633e-07 8 -3.49691e-07C8.868 -3.1175e-07 9.60133 0.558666 9.87733 1.33333L15.3333 1.33333C15.7013 1.33333 16 1.632 16 2C16 2.368 15.7013 2.66667 15.3333 2.66667L9.87733 2.66667C9.60133 3.44067 8.868 4 8 4C7.132 4 6.39867 3.44067 6.12267 2.66667ZM8.66667 2C8.66667 1.63267 8.36733 1.33333 8 1.33333C7.63267 1.33333 7.33333 1.63267 7.33333 2C7.33333 2.36733 7.63267 2.66667 8 2.66667C8.36733 2.66667 8.66667 2.36733 8.66667 2Z" fill="#495057"/>
</svg>
