<svg width="13" height="13" viewBox="0 0 13 13" fill="none" xmlns="http://www.w3.org/2000/svg">
<path d="M12.4783 0.86846C12.2152 0.638756 11.8643 0.546875 11.5134 0.546875C11.1625 0.592816 10.8555 0.730638 10.6362 1.00628L5.41693 7.25422L2.87307 4.6356C2.34676 4.08431 1.51342 4.08431 1.03097 4.6356C0.767809 4.91124 0.63623 5.23282 0.63623 5.60035C0.63623 5.96788 0.767809 6.3354 1.03097 6.5651L4.5836 10.2404C4.84676 10.516 5.15377 10.6538 5.50465 10.6538H5.54851C5.89939 10.6538 6.25027 10.4701 6.46956 10.1944L12.6099 2.84391C13.0485 2.24668 13.0047 1.37381 12.4783 0.86846Z" fill="white"/>
</svg>
