<svg width="16" height="16" viewBox="0 0 16 16" fill="none" xmlns="http://www.w3.org/2000/svg">
<path fill-rule="evenodd" clip-rule="evenodd" d="M14.6671 16H6.66405C5.92932 16 5.3311 15.402 5.3311 14.6667V11.3333C5.3311 10.9653 5.62954 10.6667 5.99757 10.6667C6.36561 10.6667 6.63594 10.9653 6.63594 11.3333V14.6667H14.6671V1.33333H6.63594V4.66667C6.63594 5.03467 6.36561 5.33333 5.99757 5.33333C5.62954 5.33333 5.3311 5.03467 5.3311 4.66667V1.33333C5.3311 0.598 5.92932 0 6.66405 0H14.6671C15.4025 0 16 0.598 16 1.33333V14.6667C16 15.402 15.4025 16 14.6671 16ZM2.2751 7.33333H11.3287C11.6967 7.33333 11.9951 7.632 11.9951 8C11.9951 8.368 11.6967 8.66667 11.3287 8.66667H2.27577L3.80344 10.1953C4.06374 10.4553 4.06374 10.878 3.80344 11.138C3.67295 11.268 3.50232 11.3333 3.33236 11.3333C3.16172 11.3333 2.99109 11.268 2.86128 11.138L0.195391 8.47133C0.13383 8.41 0.085651 8.33667 0.0515244 8.25467C0.0187361 8.17467 0.00200744 8.09 0.0013383 8.00467C0.0013383 8.00333 0 8.00133 0 8C0 7.99467 0.00267659 7.99067 0.00334574 7.98533C0.00468404 7.90333 0.0200744 7.822 0.0515244 7.74533C0.085651 7.664 0.13383 7.59 0.19606 7.528L2.86128 4.862C3.12091 4.60133 3.54314 4.60133 3.80344 4.862C4.06374 5.122 4.06374 5.54467 3.80344 5.80467L2.2751 7.33333Z" fill="#495057"/>
</svg>
