<svg width="12" height="12" viewBox="0 0 12 12" fill="none" xmlns="http://www.w3.org/2000/svg">
<path fill-rule="evenodd" clip-rule="evenodd" d="M2.44068 2.84744C2.44068 2.2858 2.89599 1.83049 3.45763 1.83049H5.49154C6.05318 1.83049 6.50848 2.2858 6.50848 2.84744V4.27117C6.50848 4.83282 6.05318 5.28812 5.49154 5.28812H3.45763C2.89599 5.28812 2.44068 4.83282 2.44068 4.27117V2.84744ZM5.49154 2.84744L3.45763 2.84744V4.27117H5.49154L5.49154 2.84744Z" fill="#495057"/>
<path fill-rule="evenodd" clip-rule="evenodd" d="M2.1356 0C1.29313 0 0.610171 0.682955 0.610171 1.52542V8.81077C0.610171 8.88971 0.591792 8.96757 0.556489 9.03817L0.157911 9.83533C0.0540639 10.043 0 10.272 0 10.5042C0 11.3303 0.669671 12 1.49575 12H7.45342C8.2795 12 8.94917 11.3303 8.94917 10.5042C8.94917 10.272 8.8951 10.043 8.79126 9.83533L8.39268 9.03817C8.35738 8.96757 8.339 8.88971 8.339 8.81077V4.67849L8.79197 4.67897C8.99118 4.67918 9.15256 4.84073 9.15256 5.03994V8.17783C9.15256 8.96413 9.78998 9.60156 10.5763 9.60156C11.3626 9.60156 12 8.96413 12 8.17783V3.96843C12 3.60443 11.8699 3.25243 11.633 2.976L11.4905 2.80959C11.3589 2.58941 11.1999 2.40693 11.0326 2.27515L10.3896 1.52452C10.2069 1.31125 9.88587 1.28648 9.6726 1.46918C9.45934 1.65188 9.43457 1.97287 9.61727 2.18614L9.90869 2.52631C9.8264 2.84261 9.8792 3.2735 10.0793 3.69685C10.3021 4.16843 10.6509 4.51036 10.9831 4.62557V8.17783C10.9831 8.40249 10.8009 8.58461 10.5763 8.58461C10.3516 8.58461 10.1695 8.40249 10.1695 8.17783V5.03994C10.1695 4.2795 9.55348 3.66282 8.79304 3.66202L8.339 3.66154V1.52542C8.339 0.682955 7.65604 0 6.81357 0H2.1356ZM1.62712 1.52542C1.62712 1.2446 1.85477 1.01695 2.1356 1.01695H6.81357C7.0944 1.01695 7.32205 1.2446 7.32205 1.52542V8.81077C7.32205 9.04759 7.37718 9.28115 7.48309 9.49296L7.88167 10.2901C7.91491 10.3566 7.93222 10.4299 7.93222 10.5042C7.93222 10.7687 7.71785 10.9831 7.45342 10.9831H1.49575C1.23132 10.9831 1.01695 10.7687 1.01695 10.5042C1.01695 10.4299 1.03426 10.3566 1.0675 10.2901L1.46608 9.49296C1.57198 9.28115 1.62712 9.04759 1.62712 8.81077V1.52542Z" fill="#495057"/>
</svg>
