<svg width="16" height="16" viewBox="0 0 16 16" fill="none" xmlns="http://www.w3.org/2000/svg">
<path fill-rule="evenodd" clip-rule="evenodd" d="M14.7692 14.1538C14.7692 14.4929 14.4935 14.7692 14.1538 14.7692H7.38461C7.04492 14.7692 6.76923 14.4929 6.76923 14.1538V12.3077H8.61538C9.63323 12.3077 10.4615 11.4794 10.4615 10.4615V4.92308H14.1538C14.4935 4.92308 14.7692 5.19938 14.7692 5.53846V14.1538ZM1.23077 10.4615V1.84615C1.23077 1.50708 1.50646 1.23077 1.84615 1.23077H8.61539C8.95508 1.23077 9.23077 1.50708 9.23077 1.84615V10.4615C9.23077 10.8006 8.95508 11.0769 8.61539 11.0769H1.84615C1.50646 11.0769 1.23077 10.8006 1.23077 10.4615ZM14.1538 3.69231H10.4615V1.84615C10.4615 0.828308 9.63323 0 8.61539 0H1.84615C0.828308 0 0 0.828308 0 1.84615V10.4615C0 11.4794 0.828308 12.3077 1.84615 12.3077H5.53846V14.1538C5.53846 15.1717 6.36677 16 7.38462 16H14.1538C15.1717 16 16 15.1717 16 14.1538V5.53846C16 4.52062 15.1717 3.69231 14.1538 3.69231Z" fill="#495057"/>
</svg>
