<svg width="27" height="31" viewBox="0 0 27 31" fill="none" xmlns="http://www.w3.org/2000/svg">
<path fill-rule="evenodd" clip-rule="evenodd" d="M25.5951 7.35846L26.3153 5.59267C26.3153 5.59267 25.3987 4.61167 24.2856 3.49987C23.1726 2.38807 20.8155 3.04207 20.8155 3.04207L18.1311 0H13.417H8.70289L6.01847 3.04207C6.01847 3.04207 3.66142 2.38807 2.54837 3.49987C1.43532 4.61167 0.518687 5.59267 0.518687 5.59267L1.2389 7.35846L0.322266 9.97445C0.322266 9.97445 3.01814 20.1739 3.33405 21.4194C3.95605 23.8719 4.38163 24.8202 6.14942 26.0628C7.91721 27.3054 11.1254 29.4636 11.6492 29.7906C12.173 30.1176 12.8277 30.6746 13.417 30.6746C14.0063 30.6746 14.661 30.1176 15.1848 29.7906C15.7086 29.4636 18.9168 27.3054 20.6846 26.0628C22.4524 24.8202 22.8779 23.8719 23.4999 21.4194C23.8158 20.1739 26.5117 9.97445 26.5117 9.97445L25.5951 7.35846Z" fill="url(#paint0_linear_6185_30821)"/>
<path fill-rule="evenodd" clip-rule="evenodd" d="M16.7559 5.52788C17.1487 5.52788 20.0623 4.97198 20.0623 4.97198C20.0623 4.97198 23.5151 9.14121 23.5151 10.0323C23.5151 10.769 23.2182 11.0574 22.8685 11.397C22.7953 11.4681 22.7197 11.5415 22.6441 11.6218L20.0551 14.3678C20.0295 14.3951 20.0009 14.4237 19.9706 14.4541C19.7122 14.7137 19.3317 15.0958 19.6002 15.7306C19.6182 15.773 19.6366 15.8161 19.6554 15.8599C19.9498 16.5476 20.3132 17.3965 19.8506 18.2568C19.3585 19.1719 18.5155 19.7827 17.9753 19.6817C17.4352 19.5807 16.1666 18.9185 15.7001 18.616C15.2336 18.3135 13.7551 17.0955 13.7551 16.6295C13.7551 16.2408 14.8184 15.5942 15.3351 15.28C15.4378 15.2176 15.519 15.1682 15.5658 15.1367C15.6191 15.1008 15.7083 15.0454 15.8181 14.9773C16.2897 14.6847 17.1411 14.1563 17.1625 13.922C17.1888 13.6331 17.1788 13.5484 16.7987 12.8348C16.7179 12.683 16.6233 12.5205 16.5256 12.3525C16.1637 11.7305 15.7584 11.034 15.8481 10.5351C15.9494 9.97188 16.8329 9.64896 17.5812 9.37544C17.6748 9.34125 17.7662 9.30784 17.8537 9.27483C18.0721 9.19245 18.3465 9.08976 18.6332 8.98251C19.3804 8.70295 20.2106 8.39233 20.3475 8.32928C20.537 8.24197 20.488 8.15884 19.914 8.1045C19.8381 8.09731 19.7437 8.08728 19.6353 8.07578C18.9248 8.00036 17.6143 7.86125 16.9771 8.03864C16.8518 8.07353 16.7114 8.11152 16.5641 8.15137C15.8482 8.34499 14.971 8.58227 14.8868 8.71906C14.872 8.74299 14.8575 8.76357 14.8438 8.78299C14.7632 8.89747 14.7107 8.97211 14.7999 9.45853C14.8264 9.60339 14.8811 9.88833 14.9486 10.2406C15.1463 11.2721 15.4547 12.8812 15.4936 13.2426C15.499 13.2932 15.505 13.342 15.5108 13.389C15.5602 13.7923 15.5931 14.0606 15.1243 14.1677C15.0853 14.1766 15.0443 14.186 15.0017 14.1958C14.4726 14.3171 13.697 14.4948 13.4167 14.4948C13.1364 14.4948 12.3601 14.3169 11.8311 14.1956C11.7888 14.1859 11.748 14.1766 11.7092 14.1677C11.2403 14.0606 11.2732 13.7923 11.3227 13.389C11.3284 13.342 11.3344 13.2932 11.3399 13.2426C11.3788 12.8806 11.688 11.2676 11.8857 10.2363C11.9529 9.88598 12.0072 9.60279 12.0336 9.45853C12.1228 8.97215 12.0702 8.89748 11.9896 8.78302C11.976 8.76358 11.9615 8.743 11.9467 8.71906C11.8625 8.58228 10.9853 8.34502 10.2695 8.1514C10.1222 8.11155 9.98165 8.07354 9.85629 8.03864C9.2192 7.86126 7.90884 8.00035 7.19824 8.07577C7.08983 8.08728 6.99538 8.0973 6.91941 8.1045C6.34547 8.15884 6.29649 8.24197 6.48597 8.32928C6.62288 8.39231 7.45264 8.70277 8.19967 8.98227C8.48656 9.08961 8.76124 9.19238 8.9798 9.27483C9.06735 9.30786 9.15882 9.34129 9.25239 9.37549C10.0007 9.64901 10.8841 9.97191 10.9854 10.5351C11.0751 11.0339 10.6699 11.7303 10.308 12.3522C10.2103 12.5203 10.1156 12.683 10.0348 12.8348C9.6547 13.5484 9.64462 13.6331 9.671 13.922C9.69235 14.1562 10.5435 14.6845 11.0151 14.9771C11.125 15.0453 11.2143 15.1008 11.2676 15.1367C11.3145 15.1682 11.3955 15.2175 11.4982 15.2799C12.0147 15.594 13.0783 16.2408 13.0783 16.6295C13.0783 17.0955 11.5999 18.3135 11.1334 18.616C10.6669 18.9185 9.3983 19.5807 8.85815 19.6817C8.31799 19.7827 7.47502 19.1719 6.98292 18.2568C6.52037 17.3966 6.88369 16.5477 7.17802 15.8601C7.19678 15.8162 7.21526 15.7731 7.23322 15.7306C7.50177 15.0958 7.12116 14.7136 6.86271 14.454C6.8325 14.4237 6.80395 14.395 6.77831 14.3678L4.18935 11.6218C4.11373 11.5416 4.03818 11.4682 3.96495 11.397C3.61526 11.0574 3.31836 10.7691 3.31836 10.0323C3.31836 9.14121 6.77118 4.97198 6.77118 4.97198C6.77118 4.97198 9.68475 5.52788 10.0776 5.52788C10.3911 5.52788 10.9964 5.31966 11.6274 5.10261C11.7871 5.04765 11.9485 4.99213 12.1073 4.93928C12.893 4.67768 13.4167 4.67578 13.4167 4.67578C13.4167 4.67578 13.9405 4.67768 14.7262 4.93928C14.885 4.99213 15.0464 5.04765 15.2061 5.10261C15.8371 5.31966 16.4424 5.52788 16.7559 5.52788ZM16.2559 20.2749C16.8717 20.592 17.3087 20.8169 17.4739 20.9201C17.6876 21.0538 17.5572 21.3058 17.3626 21.4433C17.1679 21.5807 14.5515 23.6045 14.2976 23.8281C14.2651 23.8568 14.2306 23.8878 14.1947 23.9201C13.95 24.1404 13.638 24.4213 13.4167 24.4213C13.1954 24.4213 12.8831 24.1401 12.6384 23.9198C12.6027 23.8876 12.5683 23.8567 12.5359 23.8281C12.2819 23.6045 9.66562 21.5807 9.4709 21.4433C9.27618 21.3058 9.14589 21.0538 9.3596 20.9201C9.52491 20.8168 9.96226 20.5917 10.5788 20.2744C10.7595 20.1814 10.9556 20.0804 11.1648 19.9723C12.0874 19.4954 13.2373 19.0899 13.4167 19.0899C13.5962 19.0899 14.746 19.4954 15.6688 19.9723C15.8784 20.0806 16.0748 20.1818 16.2559 20.2749Z" fill="#F8F9FA"/>
<path fill-rule="evenodd" clip-rule="evenodd" d="M20.8155 3.04207L18.1311 0H13.417H8.70286L6.01844 3.04207C6.01844 3.04207 3.66139 2.38807 2.54834 3.49987C2.54834 3.49987 5.69107 3.21649 6.77139 4.97137C6.77139 4.97137 9.68497 5.52727 10.0778 5.52727C10.4706 5.52727 11.3218 5.20027 12.1075 4.93867C12.8932 4.67707 13.417 4.67517 13.417 4.67517C13.417 4.67517 13.9408 4.67707 14.7264 4.93867C15.5121 5.20027 16.3633 5.52727 16.7561 5.52727C17.149 5.52727 20.0625 4.97137 20.0625 4.97137C21.1429 3.21649 24.2856 3.49987 24.2856 3.49987C23.1725 2.38807 20.8155 3.04207 20.8155 3.04207Z" fill="url(#paint1_linear_6185_30821)"/>
<mask id="mask0_6185_30821" style="mask-type:alpha" maskUnits="userSpaceOnUse" x="2" y="0" width="23" height="6">
<path fill-rule="evenodd" clip-rule="evenodd" d="M20.8155 3.04207L18.1311 0H13.417H8.70286L6.01844 3.04207C6.01844 3.04207 3.66139 2.38807 2.54834 3.49987C2.54834 3.49987 5.69107 3.21649 6.77139 4.97137C6.77139 4.97137 9.68497 5.52727 10.0778 5.52727C10.4706 5.52727 11.3218 5.20027 12.1075 4.93867C12.8932 4.67707 13.417 4.67517 13.417 4.67517C13.417 4.67517 13.9408 4.67707 14.7264 4.93867C15.5121 5.20027 16.3633 5.52727 16.7561 5.52727C17.149 5.52727 20.0625 4.97137 20.0625 4.97137C21.1429 3.21649 24.2856 3.49987 24.2856 3.49987C23.1725 2.38807 20.8155 3.04207 20.8155 3.04207Z" fill="white"/>
</mask>
<g mask="url(#mask0_6185_30821)">
</g>
<defs>
<linearGradient id="paint0_linear_6185_30821" x1="0.322266" y1="30.891" x2="26.5117" y2="30.891" gradientUnits="userSpaceOnUse">
<stop stop-color="#FF5500"/>
<stop offset="0.409877" stop-color="#FF5500"/>
<stop offset="0.581981" stop-color="#FF2000"/>
<stop offset="1" stop-color="#FF2000"/>
</linearGradient>
<linearGradient id="paint1_linear_6185_30821" x1="3.01535" y1="5.50689" x2="24.2856" y2="5.50689" gradientUnits="userSpaceOnUse">
<stop stop-color="#FF452A"/>
<stop offset="1" stop-color="#FF2000"/>
</linearGradient>
</defs>
</svg>
